<?xml version="1.0" encoding="UTF-8"?>
<svg version="1.1" xmlns="http://www.w3.org/2000/svg" width="2527" height="1904" viewBox="0 0 2527 1904">
<path d="M0 0 C0.92151855 0.45874512 1.84303711 0.91749023 2.79248047 1.39013672 C16.33869488 8.18403909 29.25635418 15.80566269 42 24 C42.61198242 24.39316406 43.22396484 24.78632813 43.85449219 25.19140625 C67.60584305 40.54409816 91.78637275 58.04892398 111.4453125 78.44140625 C113.14162726 80.1419831 114.92306297 81.690867 116.75 83.25 C120.2701633 86.31191719 123.69810695 89.45605301 127.0625 92.6875 C127.56426758 93.15124023 128.06603516 93.61498047 128.58300781 94.09277344 C129.97265625 95.44921875 129.97265625 95.44921875 132 98 C131.81738281 100.01269531 131.81738281 100.01269531 131 102 C128.59816974 103.84827143 126.24613225 105.45735046 123.6875 107.0625 C122.03533165 108.13107249 120.38437046 109.20151287 118.734375 110.2734375 C117.82107422 110.86350586 116.90777344 111.45357422 115.96679688 112.06152344 C111.00971985 115.30042992 106.11927423 118.63717429 101.22525024 121.97018433 C99.41883777 123.20020749 97.6113211 124.42859129 95.8034668 125.65649414 C92.2014896 128.10312187 88.60064368 130.55141035 85 133 C83.92766113 133.72912598 82.85532227 134.45825195 81.75048828 135.20947266 C77.64521241 138.00090613 73.54005683 140.79251611 69.43530273 143.5847168 C61.0342664 149.29885451 52.6273232 155.00425072 44.21923828 160.70800781 C35.97594639 166.30013387 27.73613246 171.89733155 19.5 177.5 C10.07773238 183.90954256 0.6497803 190.31065082 -8.78076172 196.70800781 C-17.02405361 202.30013387 -25.26386754 207.89733155 -33.5 213.5 C-42.32920023 219.50610563 -51.16306822 225.50528002 -60 231.5 C-73.00666757 240.32353679 -86.00470576 249.15972014 -99 258 C-112.58808639 267.24353725 -126.17986848 276.48156325 -139.77993774 285.7074585 C-148.02350513 291.29976647 -156.26359459 296.89714588 -164.5 302.5 C-173.92226762 308.90954256 -183.3502197 315.31065082 -192.78076172 321.70800781 C-201.02405361 327.30013387 -209.26386754 332.89733155 -217.5 338.5 C-226.92226762 344.90954256 -236.3502197 351.31065082 -245.78076172 357.70800781 C-254.02405361 363.30013387 -262.26386754 368.89733155 -270.5 374.5 C-279.92226762 380.90954256 -289.3502197 387.31065082 -298.78076172 393.70800781 C-307.02405361 399.30013387 -315.26386754 404.89733155 -323.5 410.5 C-332.92226762 416.90954256 -342.3502197 423.31065082 -351.78076172 429.70800781 C-360.02405361 435.30013387 -368.26386754 440.89733155 -376.5 446.5 C-385.92226762 452.90954256 -395.3502197 459.31065082 -404.78076172 465.70800781 C-413.02405361 471.30013387 -421.26386754 476.89733155 -429.5 482.5 C-438.92226762 488.90954256 -448.3502197 495.31065082 -457.78076172 501.70800781 C-466.02405361 507.30013387 -474.26386754 512.89733155 -482.5 518.5 C-491.92226762 524.90954256 -501.3502197 531.31065082 -510.78076172 537.70800781 C-520.03833757 543.98820896 -529.29101076 550.27557365 -538.54003906 556.56835938 C-544.13304748 560.37295753 -549.72878869 564.17347403 -555.328125 567.96875 C-555.94768066 568.38878296 -556.56723633 568.80881592 -557.20556641 569.24157715 C-560.19447616 571.26792689 -563.18375896 573.29372084 -566.17382812 575.31835938 C-567.26630859 576.05892578 -568.35878906 576.79949219 -569.484375 577.5625 C-570.51003067 578.24357315 -571.53568634 578.9246463 -572.59242249 579.62635803 C-574.79780966 581.12108944 -576.75796972 582.64079502 -578.80479431 584.37120056 C-588.27945963 592.04762985 -596.3389169 592.20476907 -608.20703125 591.87890625 C-610.0268791 591.86208136 -611.84676824 591.84928857 -613.66667175 591.84031677 C-618.41387182 591.80625597 -623.15851976 591.71812369 -627.90472412 591.61798096 C-632.76490772 591.52524766 -637.62551134 591.48466812 -642.48632812 591.43945312 C-651.99199542 591.34346761 -661.49578399 591.19024441 -671 591 C-669.60487073 587.32556839 -668.28013812 584.91573753 -665.5625 582.0625 C-662.0120218 578.19628054 -658.72180012 574.20123113 -655.5 570.0625 C-655.03561523 569.46622803 -654.57123047 568.86995605 -654.09277344 568.25561523 C-653.17135982 567.07156322 -652.25029266 565.88724152 -651.32958984 564.70263672 C-648.25907101 560.77061352 -645.12629346 556.88771163 -642 553 C-643.33295015 551.81206989 -644.66638699 550.6246859 -646 549.4375 C-646.7425 548.77621094 -647.485 548.11492188 -648.25 547.43359375 C-649.76968243 546.08876115 -651.29236037 544.7472069 -652.82739258 543.41992188 C-695.96907967 506.05252709 -719.00970022 454.48841129 -729 399 C-729.14775879 398.20625977 -729.29551758 397.41251953 -729.44775391 396.59472656 C-733.95852204 371.90476419 -735.42584043 346.06206506 -736 321 C-736.02191406 320.1224707 -736.04382813 319.24494141 -736.06640625 318.34082031 C-737.24756883 263.12146967 -728.66974375 209.22838218 -712.08712769 156.61593628 C-711.49662574 154.73477924 -710.91346808 152.85129783 -710.33840942 150.96536255 C-706.52609949 138.5247466 -701.85478695 128.3892031 -694 118 C-693.44981201 117.24364258 -692.89962402 116.48728516 -692.33276367 115.70800781 C-687.07939842 108.58817934 -681.28833538 101.93680294 -675.2734375 95.45703125 C-673.25815584 93.27900347 -671.30727564 91.06390714 -669.375 88.8125 C-664.11598544 82.77756526 -658.43214569 77.22643238 -652.35546875 72.01953125 C-650.57321733 70.49146494 -648.80786565 68.94365844 -647.05078125 67.38671875 C-573.5602752 2.64142949 -474.51343858 -33.51890718 -305 -59 C-304.01612305 -59.07347656 -303.03224609 -59.14695313 -302.01855469 -59.22265625 C-214.43523518 -65.35969094 -122.24889163 -52.42213467 0 0 Z M-596 187 C-596.89976562 187.42861328 -597.79953125 187.85722656 -598.7265625 188.29882812 C-622.56160404 199.81206721 -645.18114327 215.07751119 -664.2734375 233.46875 C-667 236 -667 236 -669.6640625 237.90625 C-672.19079534 239.83298942 -673.63661835 241.12174985 -675 244 C-674.78526955 249.69035685 -672.92413894 254.70723958 -671 260 C-670.43612895 261.65622652 -669.872329 263.31247725 -669.30859375 264.96875 C-663.19473275 282.3361824 -654.8994744 299.12168835 -644 314 C-643.24332031 315.04027344 -642.48664063 316.08054687 -641.70703125 317.15234375 C-635.68105314 325.28043547 -629.01434608 332.71818601 -622 340 C-621.49678223 340.52513184 -620.99356445 341.05026367 -620.47509766 341.59130859 C-613.71822555 348.60897988 -606.7153834 355.02809285 -599 361 C-598.43893555 361.44279297 -597.87787109 361.88558594 -597.29980469 362.34179688 C-566.85390746 387.51193428 -566.85390746 387.51193428 -532 401 C-530.2636862 398.55323681 -528.64988061 396.10412187 -527.0625 393.5625 C-526.06010438 391.98424253 -525.0574946 390.40612106 -524.0546875 388.828125 C-523.54389648 388.01923828 -523.03310547 387.21035156 -522.50683594 386.37695312 C-520.69485986 383.51865775 -518.85417658 380.67989418 -517.00854492 377.84326172 C-504.77723006 359.04080801 -492.84862826 340.04519206 -481 321 C-480.43925781 320.09894531 -479.87851562 319.19789063 -479.30078125 318.26953125 C-472.6202809 307.52677891 -466.00480405 296.74605226 -459.43896484 285.93286133 C-455.01059452 278.64462873 -450.54140716 271.382258 -446.0625 264.125 C-440.21292333 254.63963673 -434.44103411 245.11099956 -428.72167969 235.54663086 C-423.59171217 226.97135348 -418.41187374 218.42726083 -413.21914673 209.8899231 C-408.22678712 201.68117926 -403.26767048 193.45354586 -398.34204102 185.20458984 C-393.98424412 177.92821283 -389.512521 170.72345963 -385.01074219 163.53540039 C-384.48641602 162.69485107 -383.96208984 161.85430176 -383.421875 160.98828125 C-382.95362305 160.24102783 -382.48537109 159.49377441 -382.00292969 158.72387695 C-380.91618773 157.18833952 -380.91618773 157.18833952 -381 156 C-384.24910566 155.51464315 -387.49942729 155.0379239 -390.75 154.5625 C-392.10158203 154.36043945 -392.10158203 154.36043945 -393.48046875 154.15429688 C-407.810173 152.07090016 -421.9799782 151.75838933 -436.4375 151.75 C-437.48256714 151.74932526 -438.52763428 151.74865051 -439.60437012 151.74795532 C-493.70285335 151.80330565 -547.13870005 163.60398137 -596 187 Z " fill="#5AAB3C" transform="translate(1354,314)"/>
<path d="M0 0 C0.81013046 -0.00043808 1.62026093 -0.00087616 2.4549408 -0.00132751 C5.12808476 0.00075963 7.80059864 0.02408693 10.47363281 0.04760742 C12.3287929 0.05320364 14.18395743 0.05747362 16.03912354 0.06047058 C20.91856151 0.07191728 25.79773099 0.101383 30.67706299 0.13458252 C35.65739307 0.16528714 40.63776659 0.17897676 45.61816406 0.1940918 C55.38781318 0.22625283 65.15726316 0.27744712 74.92675781 0.34057617 C73.13772969 4.13763502 70.73533036 7.07394351 67.98925781 10.21557617 C62.92840022 16.09411953 58.0997698 22.12559141 53.33691406 28.24682617 C51.80396208 30.21457005 50.21197325 32.13869358 48.54785156 33.99682617 C46.72179115 36.15691798 46.72179115 36.15691798 46.94238281 38.46557617 C48.18475057 40.83199095 49.48674811 41.80597084 51.67675781 43.34057617 C81.45408959 65.50814538 101.96872851 97.38452263 115.92675781 131.34057617 C116.395896 132.47946289 116.395896 132.47946289 116.87451172 133.64135742 C130.28309625 166.76592465 135.25359186 201.94486104 137.92675781 237.34057617 C137.99878418 238.27579102 138.07081055 239.21100586 138.14501953 240.17456055 C138.54260178 245.56143095 138.79566854 250.94079039 138.92675781 256.34057617 C138.94867187 257.23115723 138.97058594 258.12173828 138.99316406 259.03930664 C139.8796157 302.77830789 135.46983967 346.4611388 127.29663086 389.39245605 C126.94762594 391.23066379 126.60590449 393.07025007 126.26464844 394.90991211 C123.52125557 409.4330119 119.51264993 423.3938758 114.86425781 437.40307617 C114.60868103 438.1767453 114.35310425 438.95041443 114.08978271 439.74752808 C109.91597291 452.29422592 105.17992284 463.2297487 97.17675781 473.84057617 C96.25141235 475.08158081 96.25141235 475.08158081 95.30737305 476.34765625 C91.45067968 481.46791421 87.49340133 486.37995726 83.08691406 491.03979492 C81.23145829 493.01603986 79.45835335 495.03064155 77.68847656 497.08276367 C73.85023118 501.48459952 69.8078529 505.65167391 65.67675781 509.77807617 C64.55587769 510.8977478 64.55587769 510.8977478 63.41235352 512.04003906 C58.63680665 516.76303379 53.79543587 521.17889036 48.50488281 525.32104492 C45.7209932 527.50175845 43.0498943 529.79017443 40.36425781 532.09057617 C-3.66588937 568.78236549 -57.30632558 594.43458318 -111.07324219 613.34057617 C-112.12946777 613.71633789 -113.18569336 614.09209961 -114.27392578 614.47924805 C-177.93123953 636.99588868 -247.39317086 650.30889984 -314.99121094 650.54370117 C-316.36973093 650.55072823 -317.74825062 650.55781499 -319.12677002 650.56495667 C-323.50476561 650.58433311 -327.88270803 650.58939096 -332.26074219 650.59057617 C-333.00791126 650.59101803 -333.75508034 650.59145988 -334.5248909 650.59191513 C-357.11691186 650.59891597 -379.55475082 650.32319471 -402.0100708 647.59057617 C-404.15117377 647.33113299 -406.29342043 647.08329501 -408.43603516 646.83666992 C-481.84497014 638.27084543 -553.72959156 616.29177738 -670.07324219 544.34057617 C-671.18515763 543.4850246 -672.29714035 542.62956045 -673.40917969 541.77416992 C-692.95099049 526.6607133 -710.72133082 509.89581804 -728.07324219 492.34057617 C-726.59788919 488.6185935 -724.69658433 487.0930287 -721.39355469 484.89916992 C-720.41644531 484.24303711 -719.43933594 483.5869043 -718.43261719 482.91088867 C-717.36527344 482.20706055 -716.29792969 481.50323242 -715.19824219 480.77807617 C-714.07520184 480.02773785 -712.95281851 479.27641533 -711.83105469 478.52416992 C-709.46024427 476.93549414 -707.08658174 475.35121283 -704.7109375 473.76977539 C-699.39347509 470.22509683 -694.11190817 466.62762159 -688.82781982 463.03347778 C-686.46870802 461.4295657 -684.10785608 459.82822517 -681.74697876 458.22691345 C-674.68522187 453.43711897 -667.62849511 448.63994568 -660.57324219 443.84057617 C-651.15097457 437.43103362 -641.72302248 431.02992535 -632.29248047 424.63256836 C-624.04918857 419.0404423 -615.80937465 413.44324462 -607.57324219 407.84057617 C-598.15097457 401.43103362 -588.72302248 395.02992535 -579.29248047 388.63256836 C-571.04918857 383.0404423 -562.80937465 377.44324462 -554.57324219 371.84057617 C-545.15097457 365.43103362 -535.72302248 359.02992535 -526.29248047 352.63256836 C-518.04918857 347.0404423 -509.80937465 341.44324462 -501.57324219 335.84057617 C-492.15097457 329.43103362 -482.72302248 323.02992535 -473.29248047 316.63256836 C-465.04918857 311.0404423 -456.80937465 305.44324462 -448.57324219 299.84057617 C-439.15097457 293.43103362 -429.72302248 287.02992535 -420.29248047 280.63256836 C-412.04918857 275.0404423 -403.80937465 269.44324462 -395.57324219 263.84057617 C-386.15097457 257.43103362 -376.72302248 251.02992535 -367.29248047 244.63256836 C-359.04918857 239.0404423 -350.80937465 233.44324462 -342.57324219 227.84057617 C-333.15097457 221.43103362 -323.72302248 215.02992535 -314.29248047 208.63256836 C-306.04918857 203.0404423 -297.80937465 197.44324462 -289.57324219 191.84057617 C-280.15097457 185.43103362 -270.72302248 179.02992535 -261.29248047 172.63256836 C-253.04918857 167.0404423 -244.80937465 161.44324462 -236.57324219 155.84057617 C-227.15097457 149.43103362 -217.72302248 143.02992535 -208.29248047 136.63256836 C-200.04918857 131.0404423 -191.80937465 125.44324462 -183.57324219 119.84057617 C-174.15097457 113.43103362 -164.72302248 107.02992535 -155.29248047 100.63256836 C-147.04918857 95.0404423 -138.80937465 89.44324462 -130.57324219 83.84057617 C-121.15097457 77.43103362 -111.72302248 71.02992535 -102.29248047 64.63256836 C-94.04918857 59.0404423 -85.80937465 53.44324462 -77.57324219 47.84057617 C-69.33492615 42.23642234 -61.09290792 36.63777082 -52.84741211 31.04418945 C-49.34144236 28.66570716 -45.83582836 26.28670055 -42.3302002 23.90771484 C-39.3763096 21.90319316 -36.42222513 19.89895828 -33.46777344 17.89526367 C-30.55294816 15.91836352 -27.63879297 13.94047922 -24.72509766 11.96191406 C-23.11373541 10.8680644 -21.50170048 9.77520587 -19.88964844 8.68237305 C-18.91898438 8.02301758 -17.94832031 7.36366211 -16.94824219 6.68432617 C-16.10003906 6.10875977 -15.25183594 5.53319336 -14.37792969 4.94018555 C-12.09842101 3.44860589 -12.09842101 3.44860589 -10.43377686 1.7618866 C-7.05021351 -0.27540348 -3.83223633 -0.0542631 0 0 Z M-64.07324219 190.34057617 C-65.54798557 191.90783404 -65.54798557 191.90783404 -66.86621094 194.05541992 C-67.40584473 194.87413574 -67.94547852 195.69285156 -68.50146484 196.53637695 C-69.08202637 197.4411377 -69.66258789 198.34589844 -70.26074219 199.27807617 C-70.87224121 200.21377441 -71.48374023 201.14947266 -72.11376953 202.11352539 C-74.1126815 205.18135263 -76.09439255 208.25977517 -78.07324219 211.34057617 C-78.74210449 212.37746582 -79.4109668 213.41435547 -80.10009766 214.48266602 C-84.78649691 221.75047048 -89.43842448 229.03978878 -94.07324219 236.34057617 C-94.61190918 237.18861816 -95.15057617 238.03666016 -95.70556641 238.91040039 C-99.17573633 244.37817536 -102.62934937 249.85621727 -106.07324219 255.34057617 C-106.63833496 256.2403418 -107.20342773 257.14010742 -107.78564453 258.06713867 C-122.34550063 281.26808168 -136.66469433 304.61412713 -150.86010742 328.03930664 C-154.40728405 333.89283474 -157.95955106 339.74326629 -161.51229858 345.59341431 C-162.5728976 347.34000871 -163.6332864 349.08673055 -164.69360352 350.83349609 C-167.89810177 356.1124613 -171.10335426 361.3909624 -174.3119812 366.66741943 C-182.18098775 379.60783984 -190.02646881 392.56131449 -197.79858398 405.56030273 C-200.65567592 410.33386427 -203.52824923 415.0958653 -206.45214844 419.82885742 C-206.97115723 420.66980957 -207.49016602 421.51076172 -208.02490234 422.37719727 C-208.98799892 423.93340689 -209.95489208 425.48727584 -210.92626953 427.03833008 C-213.25876236 430.43427087 -213.25876236 430.43427087 -214.07324219 434.34057617 C-208.75587927 435.75893525 -203.54969944 436.80477516 -198.07324219 437.40307617 C-196.95997559 437.52658447 -196.95997559 437.52658447 -195.82421875 437.65258789 C-112.68154098 446.57461345 -17.44614366 426.48332242 49.02050781 373.69604492 C49.97957031 372.91874023 50.93863281 372.14143555 51.92675781 371.34057617 C52.84457031 370.61483398 53.76238281 369.8890918 54.70800781 369.14135742 C62.10443658 363.222089 69.04871209 356.84736375 75.92675781 350.34057617 C76.89742187 349.64061523 76.89742187 349.64061523 77.88769531 348.92651367 C79.24760822 347.2166005 79.24760822 347.2166005 78.59082031 344.21557617 C78.26631785 342.91824733 77.91802988 341.62673664 77.55175781 340.34057617 C77.26582764 339.28531738 77.26582764 339.28531738 76.97412109 338.20874023 C65.97535391 299.03904788 42.95935467 263.65877579 11.92675781 237.34057617 C11.33499756 236.83196045 10.7432373 236.32334473 10.13354492 235.79931641 C-8.95577605 219.50134584 -30.36000724 206.51103686 -52.44824219 194.71557617 C-53.26373535 194.27697266 -54.07922852 193.83836914 -54.91943359 193.38647461 C-55.6791748 192.9871875 -56.43891602 192.58790039 -57.22167969 192.17651367 C-58.22980713 191.64356689 -58.22980713 191.64356689 -59.25830078 191.09985352 C-61.2066111 190.14760781 -61.2066111 190.14760781 -64.07324219 190.34057617 Z " fill="#3A98C0" transform="translate(1740.0732421875,354.659423828125)"/>
<path d="M0 0 C0.66 0 1.32 0 2 0 C-7.02717812 47.30241336 -30.14174525 93.21608064 -55 134 C-55.71760498 135.17900879 -55.71760498 135.17900879 -56.44970703 136.38183594 C-79.4422123 173.98801283 -106.50393657 209.25380509 -136.578125 241.46484375 C-137.9091149 242.90187406 -139.22093434 244.35659371 -140.53125 245.8125 C-146.40067159 252.33407954 -152.49385077 258.59916946 -158.6875 264.8125 C-159.48357666 265.61316895 -160.27965332 266.41383789 -161.09985352 267.23876953 C-165.33555927 271.46347116 -169.64947286 275.52770086 -174.18432617 279.42944336 C-176.78800144 281.68162072 -179.29341292 284.02854965 -181.8125 286.375 C-186.38163336 290.59149904 -191.06622753 294.60758044 -195.9140625 298.50390625 C-198.24187444 300.38678198 -200.5445802 302.28850631 -202.8359375 304.21484375 C-212.8917265 312.64529951 -223.24857219 320.48016246 -234 328 C-234.76038574 328.5347998 -235.52077148 329.06959961 -236.30419922 329.62060547 C-304.99286882 377.81124427 -384.80414616 410.06942253 -601.25 443.1875 C-602.20154968 443.18689575 -603.15309937 443.1862915 -604.13348389 443.18566895 C-694.86451786 443.03071206 -783.33571663 421.73608138 -865.37109375 383.22851562 C-867.74071255 382.12116776 -870.11763578 381.03270086 -872.5 379.953125 C-922.15874596 357.30817986 -969.14671858 325.7823683 -1010.625 290.4375 C-1011.45318237 289.73391357 -1011.45318237 289.73391357 -1012.2980957 289.01611328 C-1016.56707979 285.38306838 -1020.80937809 281.72310831 -1025 278 C-1025.70769531 277.37351562 -1026.41539062 276.74703125 -1027.14453125 276.1015625 C-1029.77881482 273.75123985 -1032.39241813 271.37993584 -1035 269 C-1035.88268555 268.1951416 -1035.88268555 268.1951416 -1036.78320312 267.37402344 C-1046.66560808 258.33106997 -1056.061692 248.97832484 -1065 239 C-1065.53641113 238.40300293 -1066.07282227 237.80600586 -1066.62548828 237.19091797 C-1081.04289514 221.04571427 -1081.04289514 221.04571427 -1086 212 C-1084.80202171 208.40606514 -1083.84773208 207.94129853 -1080.7578125 205.8828125 C-1079.86594238 205.28243164 -1078.97407227 204.68205078 -1078.05517578 204.06347656 C-1077.08821777 203.4237793 -1076.12125977 202.78408203 -1075.125 202.125 C-1073.10400351 200.76847221 -1071.08317304 199.41169705 -1069.0625 198.0546875 C-1068.04285156 197.37374023 -1067.02320313 196.69279297 -1065.97265625 195.99121094 C-1061.66884445 193.10833569 -1057.3960093 190.1811545 -1053.125 187.25 C-1051.56515015 186.18222449 -1050.00525507 185.11451505 -1048.4453125 184.046875 C-1043.64512141 180.75827756 -1038.85056911 177.4615125 -1034.05712891 174.16308594 C-1028.0677297 170.0430466 -1022.06726826 165.93925567 -1016.06640625 161.8359375 C-1011.039391 158.3976872 -1006.01723525 154.95250393 -1001 151.5 C-995.17320197 147.49041262 -989.33859348 143.49239097 -983.5 139.5 C-975.64646108 134.12947816 -967.80266367 128.7449919 -959.96484375 123.3515625 C-957.94585292 121.9627537 -955.92615122 120.57498433 -953.90625 119.1875 C-952.88917969 118.48826416 -952.88917969 118.48826416 -951.8515625 117.77490234 C-950.5065039 116.85146293 -949.16017487 115.92987091 -947.8125 115.01025391 C-944.59786419 112.812151 -941.41514133 110.58551584 -938.28125 108.2734375 C-937.69496826 107.84756348 -937.10868652 107.42168945 -936.50463867 106.98291016 C-934.91854222 105.82726349 -933.343606 104.65634336 -931.76953125 103.484375 C-929 102 -929 102 -926.28125 102.1015625 C-923.46982145 103.2088032 -922.23283353 104.91030823 -920.4296875 107.2734375 C-918.86457799 109.16354242 -917.18414831 110.66398477 -915.3125 112.25 C-912.04876748 115.02816779 -909.00998434 117.94840297 -906 121 C-901.82135723 125.21663043 -897.51874094 129.15524076 -893 133 C-891.96024803 133.90285243 -890.92124927 134.80657267 -889.8828125 135.7109375 C-881.78651448 142.74029934 -873.50537312 149.47294087 -865 156 C-864.40026367 156.46341797 -863.80052734 156.92683594 -863.18261719 157.40429688 C-795.07079224 209.91991864 -716.34849056 245.09009173 -419.03442383 271.95741272 C-336.17150731 261.01791001 -253.57390752 236.00281399 -181 194 C-180.00983887 193.42813965 -179.01967773 192.8562793 -177.99951172 192.26708984 C-152.58854879 177.50120644 -127.50597857 161.19829748 -105.29736328 141.8581543 C-103.1611977 139.9984788 -101.00920717 138.1612184 -98.83642578 136.34448242 C-90.67568354 129.49613243 -82.98059877 122.29485437 -75.4753418 114.73608398 C-73.67784195 112.92778392 -71.86977684 111.13054023 -70.06054688 109.33398438 C-63.24767294 102.52918704 -56.95878259 95.57354055 -51 88 C-50.00016803 86.79089016 -48.99676134 85.58471869 -47.98828125 84.3828125 C-27.50612513 59.60480153 -10.05106418 30.64520268 0 0 Z " fill="#419EC7" transform="translate(1847,817)"/>
<path d="M0 0 C1.36305268 -0.00702428 2.72610505 -0.01411108 4.0891571 -0.02125549 C8.41881795 -0.04064183 12.74842513 -0.0456896 17.078125 -0.046875 C18.18549452 -0.04753778 18.18549452 -0.04753778 19.31523514 -0.04821396 C41.79432042 -0.05526771 64.00275558 0.32324787 86.328125 3.203125 C87.74632329 3.37724837 89.1646209 3.55056437 90.58300781 3.72314453 C112.39299769 6.40524679 133.90932143 10.30777145 155.328125 15.203125 C156.58415527 15.48994141 157.84018555 15.77675781 159.13427734 16.07226562 C194.13095265 24.24384405 228.39707313 35.85035973 261.328125 50.203125 C262.37307129 50.65719727 263.41801758 51.11126953 264.49462891 51.57910156 C271.50482294 54.65253078 278.43312081 57.87993188 285.328125 61.203125 C286.23304688 61.63915039 286.23304688 61.63915039 287.15625 62.08398438 C305.68564135 71.02855845 323.74175308 80.49647685 341.328125 91.203125 C342.6898584 92.02441895 342.6898584 92.02441895 344.07910156 92.86230469 C356.80067562 100.54265305 369.18136506 108.64365658 381.328125 117.203125 C382.45879395 117.99952393 382.45879395 117.99952393 383.61230469 118.81201172 C399.17926163 129.82270449 414.31635636 141.38188851 428.74951172 153.84667969 C430.38258226 155.24991816 432.02767109 156.63790438 433.67578125 158.0234375 C446.10750005 168.50812587 457.8670709 179.67006436 469.390625 191.140625 C470.4257019 192.16869263 470.4257019 192.16869263 471.48168945 193.2175293 C478.43163946 200.18946478 484.75650809 207.62362496 490.953125 215.265625 C491.4996875 215.93400391 492.04625 216.60238281 492.609375 217.29101562 C496.01906552 221.48787154 499.22826635 225.77228614 502.328125 230.203125 C500.81682914 234.71616712 497.17936855 236.65834474 493.390625 239.140625 C491.93345717 240.11828605 490.47643189 241.09615958 489.01953125 242.07421875 C488.2527002 242.58452637 487.48586914 243.09483398 486.69580078 243.62060547 C482.71639575 246.28038103 478.77469692 248.9949851 474.828125 251.703125 C473.21758786 252.80489209 471.60691157 253.90645581 469.99609375 255.0078125 C463.09837878 259.72737638 456.21316889 264.46510487 449.328125 269.203125 C440.0262482 275.60431579 430.71611556 281.99316337 421.39526367 288.36669922 C416.36799392 291.80509718 411.34560195 295.25045474 406.328125 298.703125 C399.69176676 303.26979405 393.0443376 307.8201289 386.39453125 312.3671875 C380.73085166 316.24088732 375.07450342 320.12509077 369.421875 324.01489258 C361.06865808 329.76088693 352.69782476 335.48117921 344.328125 341.203125 C341.29835071 339.85081313 339.24339887 338.34831957 336.9375 335.97265625 C336.31464111 335.33811523 335.69178223 334.70357422 335.05004883 334.04980469 C334.39931396 333.37852539 333.7485791 332.70724609 333.078125 332.015625 C328.62286687 327.48853361 324.19298559 323.02979303 319.3359375 318.9296875 C317.19853824 317.09169047 315.13154328 315.18530297 313.06616211 313.26708984 C307.96733804 308.53516273 302.77158432 303.99368171 297.34765625 299.6328125 C295.1214534 297.84148239 292.91324384 296.03574197 290.71484375 294.2109375 C260.49736242 269.21529233 226.99135944 248.43120518 192.328125 230.203125 C191.47283203 229.75018066 190.61753906 229.29723633 189.73632812 228.83056641 C127.33623593 195.98903416 57.23321019 176.94255495 -12.671875 169.203125 C-13.32990112 169.1279364 -13.98792725 169.0527478 -14.66589355 168.97528076 C-59.37520945 163.88354431 -105.97985657 164.00733974 -150.671875 169.203125 C-151.41775879 169.28798157 -152.16364258 169.37283813 -152.93212891 169.46026611 C-199.49644637 174.77714086 -245.1565482 184.51114866 -289.671875 199.203125 C-290.85797363 199.59081055 -292.04407227 199.97849609 -293.26611328 200.37792969 C-331.42772618 212.91872618 -368.85828644 229.07998384 -403.671875 249.203125 C-404.4865625 249.67105469 -405.30125 250.13898438 -406.140625 250.62109375 C-431.20556745 265.09689121 -455.60082874 281.43787421 -477.671875 300.203125 C-478.20055176 300.64833496 -478.72922852 301.09354492 -479.27392578 301.55224609 C-495.99649135 315.63616133 -512.6244197 330.39749355 -526.671875 347.203125 C-527.46335937 348.10546875 -528.25484375 349.0078125 -529.0703125 349.9375 C-551.57551555 375.72359693 -569.34206474 405.57349831 -581.90087891 437.36987305 C-582.73898126 439.3626883 -583.68650326 441.27944326 -584.671875 443.203125 C-585.91993221 439.45895337 -585.26010256 437.92136404 -584.1875 434.1484375 C-583.83518311 432.90860107 -583.48286621 431.66876465 -583.11987305 430.39135742 C-582.72195299 429.03653092 -582.32258091 427.68213017 -581.921875 426.328125 C-581.72002594 425.63973541 -581.51817688 424.95134583 -581.31021118 424.24209595 C-565.61129615 370.96230369 -538.98241923 321.82277331 -507.671875 276.203125 C-507.20475098 275.5225 -506.73762695 274.841875 -506.25634766 274.140625 C-495.79545541 259.00189907 -484.52813541 244.27429121 -472.671875 230.203125 C-471.79412162 229.15116616 -470.91652671 228.09907507 -470.0390625 227.046875 C-464.87769047 220.8809224 -459.60784352 214.84575293 -454.15625 208.93359375 C-452.24944991 206.83791252 -450.39408191 204.71941126 -448.54760742 202.57177734 C-444.6001159 198.05695612 -440.42090067 193.80785167 -436.17578125 189.57421875 C-435.38340561 188.78088638 -434.59102997 187.98755402 -433.77464294 187.17018127 C-432.10937217 185.50423419 -430.44285471 183.83953244 -428.77514648 182.17602539 C-426.24152878 179.64776366 -423.71329333 177.11420839 -421.18554688 174.58007812 C-419.55761217 172.9528043 -417.92936725 171.32584075 -416.30078125 169.69921875 C-415.55470108 168.95111435 -414.80862091 168.20300995 -414.03993225 167.43223572 C-409.40993283 162.82257509 -404.63685599 158.44869887 -399.671875 154.203125 C-398.57755202 153.25326389 -397.4837036 152.30285535 -396.390625 151.3515625 C-328.11778901 92.3872244 -248.06315384 51.4369764 0 0 Z " fill="#7BB956" transform="translate(1234.671875,-0.203125)"/>
<path d="M0 0 C5.56191349 4.82926811 9.97829121 11.13310072 14.5 16.9375 C14.9333667 17.49276367 15.3667334 18.04802734 15.81323242 18.62011719 C18.86172895 22.61145399 20.14187053 25.43538813 20.125 30.4375 C20.12757813 31.19933594 20.13015625 31.96117187 20.1328125 32.74609375 C20 35 20 35 19 39 C27.25 39.33 35.5 39.66 44 40 C44 47.59 44 55.18 44 63 C7.04 63 -29.92 63 -68 63 C-62.0884742 93.2753315 -62.0884742 93.2753315 -47 122 C-45.59628685 118.3363041 -44.20361795 114.66849487 -42.8125 111 C-42.42513672 109.989375 -42.03777344 108.97875 -41.63867188 107.9375 C-38.39282952 99.35345411 -35.7518464 90.80590847 -33 82 C-8.25 82 16.5 82 42 82 C40.59188577 89.04057115 39.13248725 94.93863684 36.4375 101.4375 C36.08526367 102.29657959 35.73302734 103.15565918 35.37011719 104.04077148 C24.46611052 130.30885979 10.4282656 153.18057464 -9 174 C-5.00585371 177.45125262 -0.87163835 179.83882103 3.8125 182.1875 C4.48603516 182.54263672 5.15957031 182.89777344 5.85351562 183.26367188 C11.55507841 186.13900545 16.86036244 187.78490939 23.25 186.1875 C29.1472196 181.49652987 30.03544066 174.56774422 30.96484375 167.43359375 C31.35195931 163.96015964 31.66864795 160.47919658 32 157 C40.25 159.64 48.5 162.28 57 165 C56.17052926 173.29470739 54.87820852 179.82886679 52.4375 187.625 C52.08107422 188.76783447 51.72464844 189.91066895 51.35742188 191.08813477 C45.52505498 209.21946691 36.45959692 228.97329148 19.05859375 238.6328125 C4.0712847 245.61757704 -10.06540858 243.01631161 -25.26171875 237.90234375 C-36.77713499 233.36689943 -47.37445676 227.15981934 -56.65014648 218.97387695 C-58.30298978 217.52574168 -58.30298978 217.52574168 -61 216 C-65.1795719 216.77924222 -68.09455116 219.45743768 -71.375 222.0625 C-83.01659141 231.03820347 -95.81999635 237.40999818 -109 244 C-117.25 231.79 -125.5 219.58 -134 207 C-131.54528009 204.54528009 -130.16295597 203.39197093 -127.2265625 201.87109375 C-126.12187622 201.28557739 -126.12187622 201.28557739 -124.99487305 200.68823242 C-124.21281494 200.27549072 -123.43075684 199.86274902 -122.625 199.4375 C-112.6438134 194.03632951 -102.4125216 187.74760992 -95 179 C-94.93317532 175.29494263 -97.61550577 172.21658105 -99.5625 169.1875 C-117.67096341 140.25807572 -136 97.57649297 -136 63 C-176.26 63 -216.52 63 -258 63 C-258 74.22 -258 85.44 -258 97 C-252.555 96.95359375 -247.11 96.9071875 -241.5 96.859375 C-238.0182097 96.83889927 -234.53649527 96.81964098 -231.0546875 96.8046875 C-225.54704064 96.78092009 -220.03966365 96.75302782 -214.53222656 96.69824219 C-210.08419876 96.65427991 -205.63646098 96.63075853 -201.18823242 96.62049103 C-199.50442957 96.61318884 -197.82063975 96.59893424 -196.13696289 96.57707977 C-180.29037505 96.37986246 -164.44806895 97.82708908 -152.015625 108.7421875 C-144.30187807 116.68668754 -140.92134662 127.36599147 -140.82299805 138.25219727 C-140.80374519 140.11552452 -140.80374519 140.11552452 -140.78410339 142.01649475 C-140.77593128 143.36646114 -140.76848845 144.7164321 -140.76171875 146.06640625 C-140.75764322 146.75292707 -140.7535677 147.4394479 -140.74936867 148.14677238 C-140.728553 151.78510098 -140.71423545 155.42339244 -140.70483398 159.06176758 C-140.69381636 162.78804843 -140.65945847 166.51372443 -140.61966228 170.23979282 C-140.59329546 173.13204423 -140.58512429 176.02415629 -140.58155251 178.91651726 C-140.57673319 180.28822828 -140.56525515 181.6599351 -140.54651451 183.03152657 C-140.37180082 196.67303652 -143.36559246 208.22770653 -152 219 C-166.16474849 233.38568911 -184.37975719 234.15622 -203.375 234.3125 C-227.31053595 234.2318591 -252.76599431 229.30193063 -272 214 C-270.32174112 210.1586519 -267.82267113 207.0207232 -265.25 203.75 C-264.35119103 202.59534114 -263.45275294 201.4403935 -262.5546875 200.28515625 C-262.11866211 199.72586426 -261.68263672 199.16657227 -261.23339844 198.59033203 C-258.77912872 195.42582037 -256.39264162 192.21117691 -254 189 C-252.329375 189.61875 -252.329375 189.61875 -250.625 190.25 C-236.14454303 195.03170853 -221.04939742 196.85008608 -206 199 C-206 173.59 -206 148.18 -206 122 C-223.16 122 -240.32 122 -258 122 C-258.33 128.93 -258.66 135.86 -259 143 C-259.47974019 147.54646084 -259.98946934 151.99417683 -260.6875 156.5 C-260.86120117 157.63091064 -261.03490234 158.76182129 -261.21386719 159.92700195 C-265.36221516 185.45515892 -273.36949989 205.96274545 -292.16796875 224.16796875 C-293.89501056 225.89501056 -295.44934704 227.67747444 -297 229.5625 C-304.53142255 238.45962051 -314.38980827 244.59320551 -324 251 C-323.34724952 251.00135653 -322.69449904 251.00271306 -322.02196825 251.00411069 C-283.30002433 251.08483144 -244.57811662 251.1758149 -205.85622855 251.28005161 C-201.20265517 251.29256988 -196.54908156 251.30500274 -191.89550781 251.31738281 C-190.96909896 251.31984881 -190.04269012 251.3223148 -189.08820827 251.32485552 C-174.10503436 251.36453555 -159.12185294 251.3973039 -144.13865726 251.42749982 C-128.75457837 251.45865817 -113.37053119 251.49728621 -97.98648798 251.54279006 C-88.50037702 251.57061497 -79.01428914 251.59267389 -69.52814843 251.60726251 C-63.01547748 251.61783746 -56.50285134 251.63569439 -49.99021421 251.65916704 C-46.23767351 251.67248023 -42.48519536 251.6826889 -38.73262978 251.68421364 C-34.65178078 251.68595633 -30.57113364 251.70308821 -26.49032593 251.7215271 C-25.32102079 251.71959237 -24.15171565 251.71765763 -22.94697702 251.71566427 C-5.09840727 251.83557705 12.33634875 254.59311268 26.06640625 266.84375 C36.75498393 278.1094647 38.31620451 292.17753335 38.1953125 307.00390625 C38.19106766 308.9824485 38.19106766 308.9824485 38.18673706 311.0009613 C38.17916474 314.47795436 38.15957277 317.95477565 38.1373291 321.43170166 C38.11673129 324.99155353 38.10770579 328.55143362 38.09765625 332.11132812 C38.07631958 339.07429567 38.04119109 346.03712186 38 353 C46.25 353 54.5 353 63 353 C63 360.59 63 368.18 63 376 C-77.58 376 -218.16 376 -363 376 C-363 368.41 -363 360.82 -363 353 C-352.44 353 -341.88 353 -331 353 C-330.83471422 340.48691514 -330.72874278 327.97675863 -330.71759319 315.46256828 C-330.71024179 309.64694191 -330.68029066 303.83356072 -330.59204102 298.01855469 C-330.1831931 269.88976088 -331.36178685 245.16704821 -343.16494942 219.23714066 C-345.09384772 214.779897 -345.09322705 211.70133167 -344 207 C-342.80078125 204.69140625 -342.80078125 204.69140625 -341.3125 202.5625 C-313.92766185 158.89123532 -325.45766569 79.81691464 -325 40 C-263.95 40 -202.9 40 -140 40 C-140.33 38.02 -140.66 36.04 -141 34 C-141.27506818 31.17147484 -141.41275772 28.33773899 -141.5625 25.5 C-141.60568359 24.78585937 -141.64886719 24.07171875 -141.69335938 23.3359375 C-142.08507776 16.19795808 -142 9.18425506 -142 2 C-120.55 2 -99.1 2 -77 2 C-74.70061728 21.54475309 -74.70061728 21.54475309 -73.875 30.5625 C-73.58625 33.676875 -73.2975 36.79125 -73 40 C-63.43 39.67 -53.86 39.34 -44 39 C-45.36125 37.185 -46.7225 35.37 -48.125 33.5 C-48.56851807 32.90719238 -49.01203613 32.31438477 -49.46899414 31.70361328 C-51.27626008 29.28845235 -53.09169987 26.88106804 -54.93359375 24.4921875 C-55.47113281 23.79351563 -56.00867188 23.09484375 -56.5625 22.375 C-57.03816406 21.76398438 -57.51382812 21.15296875 -58.00390625 20.5234375 C-59 19 -59 19 -59 17 C-52.05040815 14.62162371 -45.09651701 12.25630568 -38.13688374 9.90746212 C-34.90520842 8.81633334 -31.6751705 7.72080019 -28.44848633 6.61499023 C-24.73705094 5.34327143 -21.01917348 4.09108296 -17.30078125 2.83984375 C-16.14540359 2.44095444 -14.99002594 2.04206512 -13.79963684 1.63108826 C-12.17852242 1.09041466 -12.17852242 1.09041466 -10.5246582 0.53881836 C-9.57645706 0.21682968 -8.62825592 -0.105159 -7.65132141 -0.43690491 C-4.69313703 -1.06517242 -2.87385995 -0.89300928 0 0 Z M-262 275 C-262 300.74 -262 326.48 -262 353 C-250.12 353 -238.24 353 -226 353 C-226 327.26 -226 301.52 -226 275 C-237.88 275 -249.76 275 -262 275 Z M-157 275 C-157 300.74 -157 326.48 -157 353 C-147.43 353 -137.86 353 -128 353 C-128 327.26 -128 301.52 -128 275 C-137.57 275 -147.14 275 -157 275 Z M-59 275 C-59 300.74 -59 326.48 -59 353 C-49.76 353 -40.52 353 -31 353 C-30.91594622 344.93083668 -30.83582994 336.86327335 -30.79299927 328.79405212 C-30.77194067 325.03584928 -30.74383468 321.27801162 -30.69824219 317.52001953 C-30.6545475 313.89547138 -30.63081364 310.27127573 -30.62049103 306.64648438 C-30.61314168 305.26866106 -30.59879054 303.89085545 -30.57707977 302.51318359 C-30.45727587 294.59060337 -30.54399709 288.69901112 -35 282 C-41.97348714 275.22543918 -49.61066922 275 -59 275 Z " fill="#000000" transform="translate(848,1500)"/>
<path d="M0 0 C19.14 0 38.28 0 58 0 C57.67 3.63 57.34 7.26 57 11 C106.5 11 156 11 207 11 C207 22.22 207 33.44 207 45 C185.55 45 164.1 45 142 45 C141.67 48.3 141.34 51.6 141 55 C140.68670488 56.68815067 140.33711449 58.37111492 139.9140625 60.03515625 C139.70523438 60.86466797 139.49640625 61.69417969 139.28125 62.54882812 C139.0646875 63.37833984 138.848125 64.20785156 138.625 65.0625 C138.41617188 65.89587891 138.20734375 66.72925781 137.9921875 67.58789062 C136.56370146 73.184246 134.83982648 78.48052056 133 84 C157.42 84 181.84 84 207 84 C207 94.89 207 105.78 207 117 C176.97 117 146.94 117 116 117 C115.34 118.65 114.68 120.3 114 122 C112.84531527 123.64320519 111.63528266 125.24881596 110.375 126.8125 C109.74335938 127.60269531 109.11171875 128.39289063 108.4609375 129.20703125 C107.97882813 129.79871094 107.49671875 130.39039063 107 131 C107.74644775 130.9969838 108.49289551 130.99396759 109.26196289 130.99085999 C116.32362648 130.96854226 123.38426375 130.9799381 130.44573975 131.02846622 C134.07560577 131.05224222 137.70455704 131.06333632 141.33447266 131.04467773 C144.84288668 131.02712314 148.34966401 131.04388741 151.85787964 131.08367729 C153.83630052 131.09738806 155.81486473 131.07626957 157.79321289 131.05445862 C163.83509322 131.15093789 167.99000852 131.30275772 172.671875 135.36108398 C173.80491982 136.55197584 174.91605411 137.76425112 176 139 C177.11735828 140.04985948 178.24133749 141.09276758 179.375 142.125 C191.64347494 154.67230392 208 175.64137756 208 194 C209.17945065 193.99723462 209.17945065 193.99723462 210.38272858 193.99441338 C229.52941659 193.95021362 248.6760944 193.91713333 267.82282257 193.89637566 C277.08209568 193.88607018 286.34133471 193.87202375 295.60058594 193.84912109 C303.67246318 193.82916494 311.74431572 193.81627827 319.81621695 193.81182301 C324.08883821 193.80921941 328.36138884 193.80311494 332.63398743 193.78853989 C336.65912323 193.77492081 340.68415959 193.77078608 344.70931625 193.77378464 C346.18306393 193.77323641 347.65681507 193.76928478 349.13054276 193.76158905 C368.08438063 193.6675045 368.08438063 193.6675045 376 200 C382.44380999 206.64015877 384.11238109 212.59448703 384.14044189 221.74139404 C384.14615204 222.86268707 384.15186218 223.9839801 384.15774536 225.13925171 C384.15886322 226.35496857 384.15998108 227.57068542 384.16113281 228.82324219 C384.16609772 230.11503387 384.17106262 231.40682556 384.17617798 232.73776245 C384.18924855 236.27102328 384.19573644 239.80426515 384.20018864 243.33754635 C384.20312799 245.5491225 384.20723439 247.76069357 384.21169281 249.97226715 C384.22535361 256.90382383 384.23502722 263.83536877 384.2388947 270.76693797 C384.24337225 278.7461239 384.26091192 286.72513825 384.2898953 294.70427203 C384.31156789 300.88709189 384.32160195 307.06986366 384.32293582 313.25272107 C384.32397985 316.93849378 384.32980147 320.6241049 384.34775543 324.30983734 C384.36741946 328.42638938 384.36292502 332.54258572 384.35644531 336.65917969 C384.3656601 337.86679962 384.37487488 339.07441956 384.3843689 340.31863403 C384.3445532 348.41576404 383.81354254 356.69269015 378.75 363.375 C372.80143338 369.05317722 367.13882967 371.12593576 358.99487686 371.12304783 C357.75727403 371.12503888 356.5196712 371.12702993 355.24456525 371.12908131 C353.86895558 371.12622827 352.49334611 371.12328267 351.11773682 371.12025452 C349.65822988 371.12069047 348.19872301 371.12156583 346.73921657 371.12284368 C342.72348843 371.12508383 338.70778688 371.12107389 334.69206214 371.11606562 C330.36353032 371.11175445 326.03500004 371.11320802 321.70646667 371.1139679 C314.2052805 371.11449271 306.704103 371.11135037 299.20291901 371.10573006 C288.35741378 371.09760927 277.51191275 371.09499924 266.66640481 371.09374207 C249.07105786 371.09155246 231.47571553 371.08489484 213.88037109 371.07543945 C196.78629581 371.06626298 179.69222178 371.05919476 162.59814453 371.05493164 C161.53403795 371.05466364 160.46993138 371.05439565 159.37357914 371.05411953 C151.0517909 371.05204015 142.73000262 371.05008321 134.40821433 371.04816496 C93.60547197 371.0387282 52.8027412 371.01861062 12 371 C12 312.59 12 254.18 12 194 C53.91 194 95.82 194 139 194 C130.40880392 170.6810392 120.25625289 154.17054676 103 137 C102.52280518 137.49290527 102.04561035 137.98581055 101.55395508 138.49365234 C76.96833504 163.77851539 48.1947403 183.07249475 14 193 C12.68 193 11.36 193 10 193 C8.15045877 190.76140669 6.61774718 188.62075982 5.0625 186.1875 C4.09941083 184.73277324 3.13584754 183.27836029 2.171875 181.82421875 C1.66333984 181.04739746 1.15480469 180.27057617 0.63085938 179.47021484 C-2.24987601 175.10684948 -5.2255998 170.80847799 -8.1875 166.5 C-9.30647324 164.86491422 -10.42500462 163.22952591 -11.54296875 161.59375 C-12.2548938 160.55250977 -12.2548938 160.55250977 -12.98120117 159.49023438 C-13.31740479 158.99845703 -13.6536084 158.50667969 -14 158 C-12.41189503 154.82379005 -9.13084116 154.47558874 -5.9375 153.375 C15.33981348 145.68037406 34.94812199 134.05187801 51 118 C26.91 117.67 2.82 117.34 -22 117 C-22 106.11 -22 95.22 -22 84 C10.34 84 42.68 84 76 84 C76.99 81.03 77.98 78.06 79 75 C79.495 73.54980469 79.99 72.09960938 80.5 70.60546875 C80.7475 69.87650391 80.995 69.14753906 81.25 68.39648438 C81.74643395 66.93433127 82.24638541 65.4733673 82.75 64.01367188 C84.88113368 57.70351824 86.36735305 51.53058781 88 45 C74.14 45.33 60.28 45.66 46 46 C44.02 49.63 42.04 53.26 40 57 C37.734375 60.19140625 37.734375 60.19140625 35.75 62.5625 C35.08484375 63.36816406 34.4196875 64.17382812 33.734375 65.00390625 C30.28955346 68.96855447 30.28955346 68.96855447 27.78536987 69.24050903 C26.86603668 69.23606781 25.94670349 69.23162659 24.99951172 69.22705078 C23.95858368 69.22689972 22.91765564 69.22674866 21.84518433 69.22659302 C20.1545134 69.21110916 20.1545134 69.21110916 18.4296875 69.1953125 C17.27832306 69.1924826 16.12695862 69.18965271 14.94070435 69.18673706 C11.25203188 69.17551408 7.56359947 69.15040556 3.875 69.125 C1.37890975 69.11497294 -1.1171843 69.10584662 -3.61328125 69.09765625 C-9.74226984 69.07556784 -15.87111777 69.04206947 -22 69 C-22.03979414 67.23765108 -22.06820681 65.47504264 -22.09179688 63.71240234 C-22.10883667 62.73089203 -22.12587646 61.74938171 -22.14343262 60.73812866 C-21.94486839 56.94753752 -20.62255715 54.7353626 -18.5 51.625 C-8.5946181 35.90558959 -4.65640101 17.84953719 0 0 Z M79 231 C79 243.21 79 255.42 79 268 C157.54 268 236.08 268 317 268 C317 257.11 317 246.22 317 235 C313.6723831 230.98503744 313.6723831 230.98503744 311.00279117 230.50320601 C310.29347359 230.5047249 309.58415601 230.50624378 308.85334396 230.50780869 C308.0302652 230.49984449 307.20718645 230.4918803 306.35916591 230.48367476 C305.0109201 230.50115181 305.0109201 230.50115181 303.63543701 230.51898193 C302.19698358 230.51385538 302.19698358 230.51385538 300.72947049 230.50862527 C297.50782195 230.5020231 294.2870018 230.52406152 291.06542969 230.54589844 C288.75945048 230.54702641 286.45346983 230.54639404 284.14749146 230.54412842 C277.87920795 230.54297838 271.61122916 230.56653487 265.34301662 230.59442425 C258.7953641 230.61938951 252.24770498 230.62177606 245.70001221 230.62652588 C234.70750633 230.6368888 223.71510748 230.66255849 212.72265625 230.69824219 C201.40039632 230.73495829 190.07816681 230.76327199 178.75585938 230.78027344 C178.0579533 230.78132433 177.36004723 230.78237523 176.64099249 230.78345796 C173.13980255 230.78867811 169.63861239 230.79373295 166.13742208 230.79870558 C137.09153985 230.84017243 108.04577657 230.91172592 79 231 Z M79 296 C79 308.21 79 320.42 79 333 C108.88651522 333.09037316 138.7730154 333.1620101 168.65963753 333.20426132 C172.18577095 333.20926431 175.7119041 333.21444159 179.23803711 333.21972656 C179.94004465 333.2207758 180.64205219 333.22182505 181.36533269 333.22290608 C192.74120212 333.24032468 204.11699093 333.27187033 215.49281249 333.30861118 C227.16020171 333.34598023 238.82754381 333.36792775 250.49499005 333.37635398 C257.0506632 333.38158014 263.60615332 333.3939089 270.16176796 333.42292023 C276.32669303 333.44998266 282.49135891 333.45846355 288.65633774 333.45243073 C290.92396005 333.45353508 293.19159065 333.46154316 295.45916176 333.4768219 C298.54567332 333.49660599 301.63119512 333.49198134 304.71772766 333.48101807 C305.62336199 333.49266943 306.52899631 333.5043208 307.4620741 333.51632524 C308.28664521 333.50836104 309.11121631 333.50039685 309.96077442 333.49219131 C311.02987701 333.49446964 311.02987701 333.49446964 312.12057763 333.49679399 C314.61126455 333.04623316 314.61126455 333.04623316 317 329 C317 318.11 317 307.22 317 296 C238.46 296 159.92 296 79 296 Z " fill="#000000" transform="translate(22,1505)"/>
<path d="M0 0 C0.68985841 -0.00311998 1.37971682 -0.00623996 2.09048003 -0.00945449 C4.39054234 -0.01739888 6.69033818 -0.01112431 8.99040222 -0.00482178 C10.64528558 -0.0075337 12.30016773 -0.01109576 13.95504761 -0.01544189 C18.44799326 -0.02455775 22.940847 -0.02102135 27.43379426 -0.01468372 C32.15999735 -0.00960353 36.88619282 -0.01432227 41.61239624 -0.01745605 C49.56914164 -0.02109659 57.52584996 -0.01630138 65.48258972 -0.0067749 C74.618559 0.00403875 83.75443849 0.00063647 92.89040548 -0.01042771 C100.77196374 -0.01958368 108.65349536 -0.02074366 116.53505725 -0.01555037 C121.22450546 -0.01246665 125.91391195 -0.01191871 130.60335732 -0.01862335 C183.45634091 -0.0836494 239.54006772 2.48687239 279.97941589 40.94146729 C300.92179907 62.4747014 307.44035941 90.02854941 307.13175964 119.25006104 C306.45245038 146.28319436 292.83730631 170.40213265 273.69035339 188.82427979 C262.27132882 198.82798863 249.48107114 206.51722069 235.91691589 213.25396729 C242.54450796 221.95130571 249.19319838 230.63064372 255.91691589 239.25396729 C262.1404578 247.23701291 268.29652125 255.26989338 274.43693542 263.31695557 C278.24945128 268.30681054 282.0854377 273.27867096 285.91691589 278.25396729 C287.16457986 279.87548713 288.41200341 281.49719163 289.65934753 283.11895752 C290.49828306 284.20968771 291.33731314 285.30034517 292.17643738 286.39093018 C294.21121238 289.03554445 296.24472892 291.68110115 298.27629089 294.32818604 C303.07066685 300.5718423 307.89102678 306.79434795 312.72941589 313.00396729 C317.94659429 319.70142779 323.13052483 326.42307409 328.27433777 333.17706299 C330.8148419 336.51206492 333.36574999 339.83713465 335.95207214 343.13677979 C336.42225769 343.73901367 336.89244324 344.34124756 337.37687683 344.96173096 C338.6433144 346.58135373 339.91470273 348.19710191 341.18644714 349.81256104 C342.91691589 352.25396729 342.91691589 352.25396729 342.91691589 354.25396729 C331.68638614 354.67295467 320.4577429 354.99178286 309.22096062 355.18658638 C304.0013881 355.28014312 298.78719786 355.40673408 293.57072449 355.61187744 C257.00829423 357.01250424 257.00829423 357.01250424 249.22990417 350.4944458 C245.97825652 346.83376791 243.77465953 342.89114888 241.86216736 338.40093994 C240.63971903 335.6243633 238.95817179 333.42344075 237.04972839 331.07818604 C236.04498413 329.7008384 235.04231922 328.32197109 234.04191589 326.94146729 C229.07916799 320.15033858 224.03021365 313.43242253 218.91691589 306.75396729 C213.85028612 300.13458235 208.8426524 293.47887018 203.91691589 286.75396729 C198.28622381 279.06835453 192.54428753 271.47358796 186.75700378 263.90533447 C182.0969112 257.81018591 177.47508586 251.68824222 172.8881073 245.53790283 C169.68084024 241.24491814 166.40164586 237.01846757 163.02629089 232.85552979 C161.91691589 231.25396729 161.91691589 231.25396729 161.91691589 229.25396729 C131.88691589 229.25396729 101.85691589 229.25396729 70.91691589 229.25396729 C70.91691589 270.50396729 70.91691589 311.75396729 70.91691589 354.25396729 C40.22691589 354.25396729 9.53691589 354.25396729 -22.08308411 354.25396729 C-22.17124702 310.93172816 -22.24511091 267.60957356 -22.28734542 224.28727042 C-22.29234832 219.17403706 -22.2975256 214.06080388 -22.30281067 208.9475708 C-22.30438453 207.4206256 -22.30438453 207.4206256 -22.30599019 205.86283303 C-22.32340097 189.37465667 -22.35494237 172.88653602 -22.39169529 156.39839273 C-22.42908597 139.48320678 -22.451316 122.56805004 -22.45943809 105.65282446 C-22.46492974 95.2130934 -22.48228195 84.77351981 -22.51474997 74.33383722 C-22.53587473 67.17739998 -22.54228877 60.02104429 -22.53708962 52.86457812 C-22.53452466 48.73408436 -22.53848882 44.60386603 -22.55990601 40.4734211 C-22.57937415 36.69126073 -22.58035269 32.90956095 -22.56667969 29.12737937 C-22.56418989 27.11241444 -22.58143953 25.09745492 -22.59940934 23.08256859 C-22.55416377 16.25513421 -22.27194963 11.75669647 -18.08308411 6.25396729 C-12.75127264 1.06246665 -7.27719526 0.00445988 0 0 Z M70.91691589 55.25396729 C70.91691589 95.84396729 70.91691589 136.43396729 70.91691589 178.25396729 C84.59129089 178.29521729 98.26566589 178.33646729 112.35441589 178.37896729 C116.63724548 178.39717529 120.92007507 178.4153833 125.33268738 178.43414307 C129.24559625 178.44084089 129.24559625 178.44084089 133.1585083 178.44485474 C134.87193854 178.44788209 136.58536511 178.45482234 138.29876709 178.46511841 C166.99086219 178.62858364 196.70075432 175.22122756 218.59269714 154.73834229 C229.4431414 143.14022036 234.57255365 127.71844754 234.16691589 111.94927979 C232.5677581 94.70835986 225.926627 82.76407833 212.85441589 71.56646729 C191.25580945 55.69504765 162.0089053 54.90587671 136.34660339 55.05865479 C134.657233 55.06160698 132.96786076 55.06364014 131.27848816 55.0647583 C125.11626893 55.07510933 118.95408923 55.10303047 112.79191589 55.12896729 C98.97316589 55.17021729 85.15441589 55.21146729 70.91691589 55.25396729 Z " fill="#000000" transform="translate(1832.0830841064453,1509.7460327148438)"/>
<path d="M0 0 C0.89318939 0.00215515 1.78637878 0.0043103 2.70663452 0.00653076 C64.05153387 0.24281676 127.98044999 18.45302774 172.73828125 62.00390625 C175.16661032 64.6237655 175.97906247 66.08637467 176.3125 69.6875 C176.209375 70.55375 176.10625 71.42 176 72.3125 C168.84548423 76.05850317 161.57160872 79.19392015 154.04296875 82.10546875 C152.9369783 82.53757156 151.83098785 82.96967438 150.69148254 83.41487122 C147.19186934 84.78102741 143.68976191 86.14065036 140.1875 87.5 C137.81818797 88.42338845 135.4490457 89.3472126 133.08007812 90.27148438 C127.87834171 92.30051287 122.6749928 94.32534235 117.47013855 96.34635925 C115.74590222 97.02075664 114.02659429 97.70783162 112.31123352 98.40449524 C108.36362906 99.95537429 105.14687189 100.35727954 101 99.3125 C96.99101432 96.70395459 93.55374471 93.50163342 90 90.3125 C67.23219606 71.33383854 38.43823874 61.57020846 9 60.3125 C8.20980469 60.27125 7.41960937 60.23 6.60546875 60.1875 C-15.65850818 59.58064543 -41.33369021 64.76180932 -58.10546875 80.2578125 C-64.55185543 87.26774258 -68.39109614 94.61030734 -68 104.3125 C-66.10264535 113.97034619 -60.78063952 120.61230572 -52.79296875 126.14697266 C-21.35547771 146.58305412 17.10704817 154.81792309 53.125 163.3125 C91.49466486 172.37491758 132.84866578 182.36765416 163 209.3125 C163.69996094 209.87066406 164.39992188 210.42882813 165.12109375 211.00390625 C180.60596943 223.53065753 189.48917797 243.10249629 191.75 262.625 C191.85238475 264.18636737 191.93640294 265.74907232 192 267.3125 C192.07734375 268.45332031 192.07734375 268.45332031 192.15625 269.6171875 C193.01116671 291.34632049 182.44934279 310.25723241 168.3125 325.9375 C154.48556415 340.76143187 137.16274232 350.70396459 119 359.3125 C117.61167969 359.98925781 117.61167969 359.98925781 116.1953125 360.6796875 C54.76934715 388.56744032 -26.84161682 381.55954353 -88.39355469 358.61181641 C-116.96989953 347.79263451 -152.04262129 331.55350424 -171 306.3125 C-171.953125 303.8359375 -171.953125 303.8359375 -172 301.3125 C-168.73829619 296.98482338 -164.55354612 295.74553255 -159.6171875 294.0625 C-158.78203613 293.76730469 -157.94688477 293.47210937 -157.08642578 293.16796875 C-154.35310969 292.20480982 -151.61441369 291.2581629 -148.875 290.3125 C-146.98292613 289.65192762 -145.09116422 288.99046108 -143.19970703 288.328125 C-140.30964602 287.31654378 -137.41921546 286.30614243 -134.52706909 285.30053711 C-128.3075443 283.13535369 -122.11585602 280.9047264 -115.9375 278.625 C-113.64306751 277.78598024 -111.34806728 276.9485369 -109.05279541 276.11181641 C-107.61269187 275.5832551 -106.17460631 275.0491595 -104.7387085 274.50927734 C-90.68062319 269.23320544 -90.68062319 269.23320544 -84 271.3125 C-81.92578125 272.80859375 -81.92578125 272.80859375 -80.3125 274.75 C-59.800507 297.10127503 -25.9698131 310.81712787 4.01495361 312.42022705 C6.09115029 312.47555436 8.16529116 312.50322071 10.2421875 312.515625 C11.00943146 312.52132507 11.77667542 312.52702515 12.56716919 312.53289795 C14.18571625 312.54228725 15.80428191 312.54885756 17.42285156 312.55273438 C19.83434936 312.56233811 22.24495511 312.59337646 24.65625 312.625 C45.79152615 312.76942718 69.64610879 309.82512636 85.875 295 C91.49457709 288.96955761 94.10003808 281.51562246 94 273.3125 C93.19554063 263.76168447 88.12055166 254.3138241 81.05078125 247.91015625 C73.3781786 241.93283342 64.70568184 238.15882384 55.8125 234.375 C54.92506104 233.99239014 54.03762207 233.60978027 53.12329102 233.21557617 C32.94709488 224.86995992 11.75306288 219.52649415 -9.41369629 214.38473511 C-16.47579014 212.668813 -23.52857701 210.91509062 -30.58203125 209.1640625 C-31.26760983 208.99409445 -31.9531884 208.8241264 -32.65954208 208.6490078 C-54.0082074 203.3536553 -75.33245784 197.84999739 -95.93896484 190.08154297 C-97.87200576 189.36025905 -99.82041341 188.68054301 -101.76953125 188.00390625 C-126.04453284 179.14076916 -149.93120844 163.49616878 -161.375 139.6875 C-168.96949359 122.10025168 -170.95982994 102.46207664 -164.21777344 84.19287109 C-154.98080483 61.34595041 -137.78751139 44.05011998 -117 31.3125 C-116.35981934 30.91869141 -115.71963867 30.52488281 -115.06005859 30.11914062 C-94.75387291 17.80861222 -73.11062916 9.53080708 -49.9375 4.5625 C-49.01743164 4.36366211 -48.09736328 4.16482422 -47.14941406 3.95996094 C-31.51933996 0.79265708 -15.91138774 -0.06966669 0 0 Z " fill="#000000" transform="translate(1565,1498.6875)"/>
<path d="M0 0 C44.57913424 -0.09041298 89.1582465 -0.16203169 133.73745424 -0.20426132 C138.99961157 -0.20926419 144.26176872 -0.21444147 149.52392578 -0.21972656 C150.57153308 -0.2207758 151.61914038 -0.22182505 152.69849336 -0.22290608 C169.6645163 -0.24031458 186.63048505 -0.27185474 203.59647584 -0.30861118 C221.00322211 -0.34600819 238.40993999 -0.36823323 255.81672478 -0.37635398 C266.55893927 -0.38184432 277.30100064 -0.39918942 288.04316801 -0.43166587 C295.40799095 -0.45279842 302.77273464 -0.45920289 310.1375857 -0.45400551 C314.38769108 -0.45144178 318.63752873 -0.45539089 322.88758659 -0.4768219 C326.78020363 -0.49630712 330.67237326 -0.49725744 334.56501102 -0.48359558 C335.97161337 -0.48190743 337.37824378 -0.48696519 338.78479099 -0.49953273 C346.59567656 -0.56525307 352.39857779 -0.39596046 359 4 C362.25429341 7.82694833 363.83147811 11.77782839 363.48828125 16.92578125 C361.45867152 25.5475634 352.93711582 32.82567388 347.23828125 39.296875 C343.80406002 43.2028902 340.51584593 47.21670301 337.2421875 51.2578125 C334.69746317 54.37000148 332.10381775 57.43726497 329.5 60.5 C326.12711398 64.46899152 322.78823226 68.4601718 319.5 72.5 C316.2117626 76.53983452 312.87268539 80.53083277 309.5 84.5 C303.86214514 91.13770996 298.34635423 97.87058664 292.86328125 104.63671875 C288.14519969 110.43902731 283.32509083 116.14055684 278.44433594 121.80566406 C274.64860665 126.21992085 270.94736573 130.7031536 267.27734375 135.22265625 C264.71795946 138.34396367 262.11406209 141.4245003 259.5 144.5 C256.12716411 148.46903543 252.78823355 152.46017021 249.5 156.5 C245.75147354 161.1053325 241.92915754 165.64204444 238.08374023 170.16625977 C235.2045468 173.55954109 232.36795763 176.98267786 229.5625 180.4375 C225.60556582 185.30049424 221.53564058 190.05700203 217.44384766 194.80615234 C213.64836633 199.22031766 209.94722087 203.70333198 206.27734375 208.22265625 C203.71795946 211.34396367 201.11406209 214.4245003 198.5 217.5 C195.12716411 221.46903543 191.78823355 225.46017021 188.5 229.5 C184.75212202 234.1045358 180.93016556 238.64019191 177.0859375 243.1640625 C174.18755177 246.5805954 171.328449 250.02504838 168.5 253.5 C165.21176077 257.53983677 161.87261796 261.53077333 158.5 265.5 C149.84641261 275.44361604 149.84641261 275.44361604 142 286 C209.98 286.33 277.96 286.66 348 287 C348 309.11 348 331.22 348 354 C303.76898063 354.08815147 259.53804397 354.16201975 215.30696192 354.20426132 C210.08729086 354.20926426 204.86761999 354.21444153 199.64794922 354.21972656 C198.60878914 354.2207758 197.56962906 354.22182505 196.49897929 354.22290608 C179.66416882 354.24032016 162.82941289 354.27186337 145.99463479 354.30861118 C128.72575972 354.3459927 111.45691324 354.36822995 94.18799937 354.37635398 C83.52869418 354.38184754 72.86954313 354.39921006 62.21028538 354.43166587 C54.90481336 354.45277932 47.59942125 354.45920724 40.29392092 354.45400551 C36.07646688 354.45143879 31.85928253 354.45542476 27.64187622 354.4768219 C23.78143648 354.49626523 19.92144816 354.49728471 16.06098779 354.48359558 C14.66384217 354.48190333 13.26666856 354.48699664 11.86957817 354.49953273 C-1.22595542 354.61021407 -1.22595542 354.61021407 -6 350 C-8.47776093 345.84375586 -9.76193327 342.08741735 -8.8828125 337.21484375 C-7.06078697 332.64365579 -3.59448866 329.14585853 -0.34863281 325.51806641 C1.9863292 322.88975471 4.23554271 320.18899339 6.5 317.5 C7.4374129 316.39575938 8.37491222 315.29159213 9.3125 314.1875 C11.74077711 311.31771796 14.12683223 308.41560612 16.5 305.5 C22.04192098 298.69586214 27.73308923 292.02024122 33.41601562 285.33398438 C38.90270514 278.87593074 44.33777129 272.38502384 49.6875 265.8125 C52.7243277 262.1190609 55.81960955 258.47701514 58.91625977 254.83374023 C61.7954532 251.44045891 64.63204237 248.01732214 67.4375 244.5625 C71.39443418 239.69950576 75.46435942 234.94299797 79.55615234 230.19384766 C83.35401501 225.77691282 87.05680041 221.29046003 90.73046875 216.76953125 C95.54688939 210.89200589 100.494943 205.12388086 105.41601562 199.33398438 C110.90270514 192.87593074 116.33777129 186.38502384 121.6875 179.8125 C124.7243277 176.1190609 127.81960955 172.47701514 130.91625977 168.83374023 C133.7954532 165.44045891 136.63204237 162.01732214 139.4375 158.5625 C143.39443418 153.69950576 147.46435942 148.94299797 151.55615234 144.19384766 C155.35401501 139.77691282 159.05680041 135.29046003 162.73046875 130.76953125 C167.54688939 124.89200589 172.494943 119.12388086 177.41601562 113.33398438 C182.90270514 106.87593074 188.33777129 100.38502384 193.6875 93.8125 C196.26146571 90.68200116 198.8757825 87.58835556 201.5 84.5 C207.48348152 77.45476433 213.45263986 70.39648018 219 63 C146.73 63 74.46 63 0 63 C0 42.21 0 21.42 0 0 Z " fill="#000000" transform="translate(977,1510)"/>
<path d="M0 0 C1.1779605 -0.00170885 2.355921 -0.0034177 3.56957728 -0.00517833 C6.82607327 -0.00789654 10.08240886 -0.00167064 13.3388859 0.00837779 C16.85549632 0.01703345 20.37209958 0.01409063 23.88871765 0.01257324 C29.97713927 0.01152573 36.06551794 0.01778836 42.15392876 0.02904892 C50.956688 0.04531907 59.75942653 0.05051348 68.56219918 0.0530249 C82.84490908 0.05739963 97.1275961 0.0707027 111.41029358 0.08963013 C125.28268825 0.10799468 139.1550767 0.12214837 153.02748108 0.13064575 C153.88290975 0.1311712 154.73833841 0.13169665 155.61968916 0.13223802 C159.91122313 0.13484813 164.20275714 0.13737554 168.49429119 0.13986182 C204.08374394 0.16058739 239.67315438 0.19745343 275.2625885 0.24050903 C275.2625885 18.39050903 275.2625885 36.54050903 275.2625885 55.24050903 C204.6425885 55.24050903 134.0225885 55.24050903 61.2625885 55.24050903 C61.2625885 84.61050903 61.2625885 113.98050903 61.2625885 144.24050903 C131.8825885 144.24050903 202.5025885 144.24050903 275.2625885 144.24050903 C275.2625885 163.05050903 275.2625885 181.86050903 275.2625885 201.24050903 C204.6425885 201.24050903 134.0225885 201.24050903 61.2625885 201.24050903 C61.2625885 233.25050903 61.2625885 265.26050903 61.2625885 298.24050903 C131.8825885 298.24050903 202.5025885 298.24050903 275.2625885 298.24050903 C275.2625885 316.72050903 275.2625885 335.20050903 275.2625885 354.24050903 C238.32707444 354.32869624 201.3916597 354.40255079 164.45607048 354.44477035 C160.09518958 354.44977316 155.73430891 354.45495045 151.37342834 354.4602356 C150.07117272 354.46180946 150.07117272 354.46180946 148.7426089 354.46341512 C134.68651689 354.48081891 120.63049033 354.51235646 106.57443714 354.54912022 C92.15092432 354.58653036 77.72744577 354.60874504 63.30388641 354.61686301 C54.40422593 354.62235064 45.50475047 354.6396809 36.60514694 354.6721749 C30.50180751 354.69332369 24.39856369 354.69970826 18.29519027 354.69451454 C14.77415899 354.69195331 11.25345095 354.69587098 7.73247719 354.71733093 C3.91223562 354.74044445 0.09241381 354.7324518 -3.72789001 354.7215271 C-4.83685324 354.73317847 -5.94581646 354.74482983 -7.08838463 354.75683427 C-13.47654018 354.70742024 -18.43678241 353.99243221 -23.7374115 350.24050903 C-27.87408551 345.89169789 -28.86103232 342.64723453 -28.87163258 336.75001049 C-28.87609042 335.60170039 -28.88054826 334.4533903 -28.88514119 333.27028292 C-28.88495683 332.00299218 -28.88477247 330.73570143 -28.88458252 329.43000793 C-28.88788136 328.07463453 -28.89160697 326.71926211 -28.895724 325.36389095 C-28.90574958 321.6311334 -28.90946168 317.89839193 -28.91211331 314.16562283 C-28.91601463 310.14302138 -28.925593 306.12043268 -28.93432617 302.09783936 C-28.95409403 292.38003377 -28.96415657 282.66222714 -28.97305396 272.94440648 C-28.97743578 268.37014636 -28.98280281 263.79588739 -28.98804283 259.22162819 C-29.00505438 244.01981058 -29.01954962 228.81799369 -29.02679157 213.61616802 C-29.02870152 209.67071723 -29.03062184 205.72526644 -29.03257751 201.77981567 C-29.03306125 200.79917378 -29.033545 199.81853189 -29.03404339 198.80817357 C-29.04234771 182.9144264 -29.06769172 167.02075439 -29.10015819 151.12704005 C-29.13320545 134.81631559 -29.15123816 118.50562937 -29.15443581 102.19487125 C-29.15660293 93.03408415 -29.16538111 83.87340672 -29.19089699 74.71265221 C-29.21257203 66.91277041 -29.22067016 59.11302489 -29.21093021 51.31311639 C-29.20637637 47.33259691 -29.20833431 43.35235881 -29.22769165 39.37187767 C-29.24525909 35.72803961 -29.24437844 32.08468956 -29.22879436 28.44084678 C-29.22527796 26.49786443 -29.24149236 24.55487734 -29.25839883 22.61196536 C-29.21076594 16.19422161 -29.15001979 12.06883689 -24.7374115 7.24050903 C-17.22241709 -0.1074855 -9.96885962 -0.05297342 0 0 Z " fill="#000000" transform="translate(2231.7374114990234,1509.7594909667969)"/>
<path d="M0 0 C18.1303363 3.08339053 38.52563052 32.88571234 48.5078125 46.875 C58.48884079 61.26445372 66.35260925 76.82872314 73 93 C73.31275879 93.75925781 73.62551758 94.51851563 73.94775391 95.30078125 C85.4877061 123.80907916 90.9615415 154.06985899 93.875 184.5625 C93.94279663 185.26175598 94.01059326 185.96101196 94.08044434 186.68145752 C95.25348793 199.03422785 95.25348793 199.03422785 94 203 C93.79238037 203.80244141 93.58476074 204.60488281 93.37084961 205.43164062 C84.54581407 238.89660721 70.91891741 268.5131052 49.25 295.625 C48.47184937 296.60231079 48.47184937 296.60231079 47.67797852 297.59936523 C44.15479117 301.90138009 40.33382019 305.51971327 36 309 C35.72438232 308.11554199 35.44876465 307.23108398 35.16479492 306.31982422 C22.36778817 265.63636964 2.80750551 227.40677297 -31 200 C-32.10109344 199.06478197 -33.20125738 198.1284691 -34.30078125 197.19140625 C-54.78618116 179.92896485 -81.27977297 160.57340901 -107 152 C-105.44499334 147.51007174 -103.02030286 143.76457725 -100.37890625 139.85546875 C-99.68981422 138.8242968 -99.68981422 138.8242968 -98.98680115 137.77229309 C-97.5163379 135.57444319 -96.03942655 133.38101033 -94.5625 131.1875 C-93.60441607 129.75612813 -92.64673034 128.32448964 -91.68945312 126.89257812 C-82.97388457 113.87503489 -74.11050679 100.95769415 -65.125 88.125 C-64.54476074 87.29621338 -63.96452148 86.46742676 -63.36669922 85.61352539 C-57.33044657 77.01329479 -51.17832542 68.4984745 -45 60 C-44.27296875 58.99710937 -43.5459375 57.99421875 -42.796875 56.9609375 C-39.91334147 52.98728764 -37.01828326 49.02254287 -34.10546875 45.0703125 C-33.35064209 44.04490356 -33.35064209 44.04490356 -32.58056641 42.9987793 C-31.58551816 41.64767085 -30.58914546 40.2975366 -29.59130859 38.94848633 C-27.09227353 35.60272499 -27.09227353 35.60272499 -25 32 C-24.34 32 -23.68 32 -23 32 C-22.67 30.68 -22.34 29.36 -22 28 C-21.34 28 -20.68 28 -20 28 C-19.76539063 27.29101562 -19.53078125 26.58203125 -19.2890625 25.8515625 C-17.76338122 22.47657057 -15.80601672 20.16728236 -13.375 17.375 C-8.58704766 11.79636055 -4.23700257 6.01228298 0 0 Z " fill="#044375" transform="translate(1783,393)"/>
<path d="M0 0 C0.66 0 1.32 0 2 0 C2.24532471 0.78834229 2.49064941 1.57668457 2.7434082 2.38891602 C10.33604523 26.55176896 19.18702712 49.21810963 34 70 C34.41604492 70.58426758 34.83208984 71.16853516 35.26074219 71.77050781 C41.52283564 80.44606472 48.59172498 88.30025186 56 96 C56.70624512 96.73911621 56.70624512 96.73911621 57.42675781 97.49316406 C63.88083791 104.21861403 70.6414974 110.28511673 78 116 C78.56251465 116.44424316 79.1250293 116.88848633 79.70458984 117.34619141 C99.77015389 133.15033061 122.13697962 145.71453698 145 157 C143.54771483 161.08551858 141.55231267 164.37336357 139.10546875 167.9453125 C138.53010376 168.78955276 138.53010376 168.78955276 137.94311523 169.65084839 C136.69578829 171.47872047 135.4417591 173.30187938 134.1875 175.125 C133.31834874 176.3955478 132.44961814 177.66638348 131.58129883 178.9375 C129.85234003 181.46693967 128.12076065 183.99455024 126.38671875 186.52050781 C124.36577563 189.46491633 122.3526158 192.41452086 120.34375 195.3671875 C108.4972809 212.76864892 96.40783047 229.99408198 84 247 C83.17314697 248.13405273 83.17314697 248.13405273 82.32958984 249.29101562 C74.23453067 260.37706725 65.97615973 271.3312334 57.63671875 282.234375 C54.73213431 286.03353862 51.8567516 289.85227411 49 293.6875 C45.11701673 298.88725601 41.09037625 303.9622614 37 309 C-8.31899092 282.73740456 -33.99218762 227.46528986 -47 179 C-48.96566788 171.05674832 -50.55360084 163.05219255 -52 155 C-52.15307617 154.16903809 -52.30615234 153.33807617 -52.46386719 152.48193359 C-55.23872502 137.1079741 -56.09676023 121.57399421 -57 106 C-56.34 106 -55.68 106 -55 106 C-54.896875 104.72640625 -54.79375 103.4528125 -54.6875 102.140625 C-54.08525176 96.78312507 -52.66716109 91.86367384 -51 86.75 C-50.69167236 85.79834961 -50.38334473 84.84669922 -50.06567383 83.86621094 C-39.7980546 52.9690614 -23.17528488 23.17528488 0 0 Z " fill="#02773E" transform="translate(677,558)"/>
<path d="M0 0 C38.8265625 -0.12375 38.8265625 -0.12375 78.4375 -0.25 C86.6042749 -0.28641602 94.7710498 -0.32283203 103.18530273 -0.36035156 C113.1739502 -0.37841797 113.1739502 -0.37841797 117.85316467 -0.3817749 C121.11454702 -0.38549481 124.37566776 -0.40045755 127.63697815 -0.42230225 C131.80345525 -0.44983808 135.96955459 -0.45794647 140.13611424 -0.4522891 C141.66117823 -0.45347123 143.18625609 -0.46134465 144.7112416 -0.47686052 C153.7843995 -0.56484944 162.20855307 -0.52236205 169.15625 6.03515625 C169.5996875 6.70417969 170.043125 7.37320312 170.5 8.0625 C170.9640625 8.73410156 171.428125 9.40570312 171.90625 10.09765625 C173.94662085 13.64644412 174.1285851 16.54361588 174.14044189 20.55267334 C174.14615204 21.70783447 174.15186218 22.86299561 174.15774536 24.05316162 C174.15942215 25.95608978 174.15942215 25.95608978 174.16113281 27.89746094 C174.16576187 29.24613582 174.17078665 30.59480939 174.17617798 31.94348145 C174.18929718 35.60894567 174.19574621 39.27439157 174.20018864 42.9398756 C174.20312065 45.23097924 174.20722575 47.52207789 174.21169281 49.81317902 C174.22536762 56.98447704 174.23503387 64.15576365 174.2388947 71.32707381 C174.24337299 79.59949985 174.26091023 87.87176045 174.2898953 96.14413619 C174.31153143 102.5417088 174.32160004 108.93923493 174.32293582 115.33684373 C174.32398264 119.1561432 174.32986385 122.97528715 174.34775543 126.79454803 C174.36426922 130.3896902 174.36637575 133.98456052 174.35761642 137.57972717 C174.35648243 139.52141297 174.37017498 141.46308987 174.3843689 143.40472412 C174.34674444 151.28504149 173.92149917 156.61721149 168.625 162.75 C163.8115181 166.87584163 160.69515274 168.3757486 154.2865448 168.36076355 C153.62640884 168.3633316 152.96627289 168.36589966 152.28613281 168.36854553 C150.07486407 168.37349747 147.86428225 168.35696447 145.65307617 168.34057617 C144.04048592 168.33965689 142.42789446 168.34005812 140.81530476 168.34167194 C136.49979595 168.34234877 132.18453709 168.32497095 127.86908722 168.30384064 C123.81851927 168.28674619 119.76801188 168.28595077 115.71740723 168.28381348 C103.87407176 168.26807624 92.03078272 168.22619272 80.1875 168.1875 C40.4946875 168.0946875 40.4946875 168.0946875 0 168 C0 112.56 0 57.12 0 0 Z M62 38 C62 69.68 62 101.36 62 134 C79.16 134 96.32 134 114 134 C114 102.32 114 70.64 114 38 C96.84 38 79.68 38 62 38 Z " fill="#000000" transform="translate(246,1516)"/>
</svg>
